Coordinates
version=1
nRows=21
nColumns=33
inDegrees=yes

Units are S.I. units (second, meters, Newtons, ...)
Angles are in degrees.

endheader
time	ground_thorax_rot_x	ground_thorax_rot_y	ground_thorax_rot_z	ground_thorax_tx	ground_thorax_ty	ground_thorax_tz	clav_prot_r	clav_elev_r	scapula_abduction_r	scapula_elevation_r	scapula_upward_rot_r	scapula_winging_r	shoulder_elv_r	plane_of_elev_r	axial_rot_r	elbow_flexion_r	pro_sup_r	wrist_flex_r	wrist_dev_r	clav_prot_l	clav_elev_l	scapula_abduction_l	scapula_elevation_l	scapula_upward_rot_l	scapula_winging_l	shoulder_elv_l	plane_of_elev_l	axial_rot_l	elbow_flexion_l	pro_sup_l	wrist_flex_l	wrist_dev_l
      5.83000000	      0.37213986	     -1.48411880	     13.90476323	     -0.12110935	      1.02970030	      0.01449390	      8.05717796	     -6.81026954	     15.20345238	     -1.08051676	      2.57620319	     -4.13808118	    -54.79942809	    -71.17926929	     86.40162868	    -58.98242400	   -129.89614943	     48.67370148	    -24.99999983	      8.46678958	      1.32710402	     -9.17221905	    -23.08347738	    -34.76494760	     -2.93662362	     50.39326636	    -37.29712404	      3.04117282	     59.79194367	     28.53034593	     -5.01520051	    -24.99999983
      5.84000000	      0.37000283	     -1.48289239	     13.90714526	     -0.12120189	      1.02919800	      0.01446600	      8.05659802	     -6.81206645	     15.20281120	     -1.08241076	      2.57676737	     -4.13762138	    -54.79981460	    -71.17693435	     86.40271089	    -58.98191873	   -129.89620957	     48.67412797	    -24.99999983	      8.46581445	      1.32338227	     -9.17013959	    -23.08113473	    -34.76735502	     -2.93841408	     50.39010038	    -37.29562176	      3.03913273	     59.79110532	     28.53047952	     -5.01531533	    -24.99999983
      5.85000000	      0.34821672	     -1.46467952	     13.95926139	     -0.12128870	      1.02896117	      0.01428895	      8.05150644	     -6.83051175	     15.20123830	     -1.10351689	      2.58821228	     -4.13090460	    -54.79901539	    -71.14710571	     86.41419999	    -58.98448631	   -129.89764356	     48.68224869	    -24.99999983	      8.44848195	      1.28496164	     -9.14786793	    -23.05296897	    -34.78544700	     -2.94513781	     50.35872682	    -37.26362878	      3.01172621	     59.78996384	     28.53131049	     -5.01822079	    -24.99999983
      5.86000000	      0.35954495	     -1.46365404	     14.01893862	     -0.12138844	      1.02869286	      0.01432252	      8.04720618	     -6.84825907	     15.20109172	     -1.12445910	      2.59928702	     -4.12513513	    -54.79115450	    -71.12562955	     86.41900225	    -58.98321919	   -129.89914880	     48.68993330	    -24.99999983	      8.44300700	      1.26245725	     -9.13965198	    -23.02433848	    -34.77458462	     -2.94142777	     50.36360218	    -37.22801474	      2.99793180	     59.78959399	     28.53092772	     -5.02339130	    -24.99999983
      5.87000000	      0.55217808	     -1.39706397	     13.75993155	     -0.12068736	      1.03034990	      0.01457660	      7.67596897	     -7.39446610	     14.53065884	     -1.55893998	      2.45543332	     -3.67493355	    -53.35760902	    -71.40937004	     86.81934234	    -58.20204986	   -130.06759436	     51.73431035	    -24.99999983	      7.64161485	      0.05829657	     -7.94542600	    -22.10612619	    -35.30158176	     -3.33082376	     52.48852899	    -37.83386539	      1.45624571	     59.56525237	     28.39035861	     -7.22024955	    -24.99999983
      5.88000000	      0.54669446	     -1.40101665	     13.81913996	     -0.12071513	      1.03007610	      0.01458307	      7.67472905	     -7.40078051	     14.53944871	     -1.57281924	      2.47568837	     -3.67646683	    -53.34695392	    -71.41100373	     86.81988931	    -58.21884272	   -130.07035453	     51.73785409	    -24.99999983	      7.64380293	      0.05167530	     -7.94397923	    -22.08525764	    -35.27301617	     -3.32530295	     52.50456429	    -37.79068461	      1.45818461	     59.58099313	     28.38830072	     -7.22373800	    -24.99999983
      5.89000000	      0.53700852	     -1.38935767	     13.87831278	     -0.12069661	      1.02984423	      0.01458064	      7.67525994	     -7.40894717	     14.55334685	     -1.59003741	      2.49891603	     -3.68116397	    -53.33213628	    -71.41763500	     86.81978283	    -58.24106769	   -130.07338249	     51.74337656	    -24.99999983	      7.64415071	      0.04408100	     -7.94116594	    -22.06374359	    -35.24387114	     -3.31873740	     52.52072419	    -37.74314298	      1.45914389	     59.59913968	     28.38670294	     -7.22832146	    -24.99999983
      5.90000000	      0.53043665	     -1.38003594	     13.92441986	     -0.12066356	      1.02961833	      0.01461007	      7.67826223	     -7.41434388	     14.56805605	     -1.60233656	      2.51692796	     -3.68560593	    -53.31708348	    -71.43088793	     86.81826634	    -58.26167781	   -130.07609615	     51.74983415	    -24.99999983	      7.64780333	      0.03942010	     -7.94241539	    -22.04215853	    -35.20926452	     -3.31156767	     52.54468906	    -37.69413559	      1.46144451	     59.61948694	     28.38520769	     -7.23404153	    -24.99999983
      5.91000000	      0.58386470	     -1.32258549	     13.69556899	     -0.12068712	      1.02921974	      0.01453420	      7.71953549	     -7.46007647	     14.66506378	     -1.66039874	      2.55887207	     -3.71057763	    -53.19775365	    -71.50688416	     86.87047685	    -58.51091486	   -130.10607445	     51.89253181	    -24.99999983	      7.65530688	      0.06140976	     -7.93707066	    -22.02412057	    -35.12670110	     -3.30083114	     52.60861836	    -37.38466639	      1.32629100	     59.71967217	     28.41292723	     -7.31869821	    -24.99999983
      5.92000000	      0.57642204	     -1.32748354	     13.73791408	     -0.12058621	      1.02903862	      0.01465426	      7.72192811	     -7.45705954	     14.67210382	     -1.66058171	      2.56524332	     -3.71396087	    -53.18524797	    -71.52412573	     86.86628268	    -58.51957359	   -130.10859315	     51.89777343	    -24.99999983	      7.66095789	      0.06272780	     -7.94177553	    -22.00745291	    -35.08896790	     -3.28984825	     52.64696681	    -37.35132665	      1.33855713	     59.73142562	     28.41142549	     -7.32566486	    -24.99999983
      5.93000000	      0.56434790	     -1.26403298	     13.74994161	     -0.12052091	      1.02881679	      0.01466826	      7.74117068	     -7.45489428	     14.70016263	     -1.65275265	      2.55206881	     -3.72768262	    -53.17753640	    -71.58348911	     86.88311033	    -58.55362088	   -130.11270017	     51.92134877	    -24.99999983	      7.67102615	      0.07261912	     -7.94775456	    -21.98778644	    -35.03107416	     -3.28261448	     52.71990531	    -37.29393588	      1.34964647	     59.77218867	     28.41068366	     -7.34709730	    -24.99999983
      5.94000000	      0.55979490	     -1.28972595	     13.77610229	     -0.12036737	      1.02871755	      0.01482240	      7.74536373	     -7.45088746	     14.70365411	     -1.64611614	      2.54781594	     -3.72697592	    -53.17743286	    -71.59825351	     86.88693411	    -58.56344546	   -130.11377460	     51.92735743	    -24.99999983	      7.67939544	      0.07095110	     -7.95670006	    -21.96530763	    -34.99200943	     -3.26874551	     52.75665737	    -37.24993931	      1.35286784	     59.80157273	     28.40822656	     -7.35401659	    -24.99999983
      5.95000000	      0.56657546	     -1.20302808	     13.55839490	     -0.12036436	      1.02806495	      0.01480625	      7.79851657	     -7.45601814	     14.78137110	     -1.63920605	      2.51631508	     -3.75579029	    -53.18711269	    -71.77198075	     87.07326321	    -59.00360951	   -130.16160007	     52.11082891	    -24.99999983	      7.72690554	      0.12666535	     -8.02799585	    -21.99810756	    -34.94391649	     -3.23780011	     52.95997902	    -37.07391532	      1.14349049	     60.26912256	     28.40695643	     -7.48251025	    -24.99999983
      5.96000000	      0.54863347	     -1.14527948	     13.60423534	     -0.12023986	      1.02802599	      0.01486236	      7.81335725	     -7.44190587	     14.78987325	     -1.61193098	      2.48467230	     -3.76541671	    -53.19348839	    -71.81820404	     87.09757243	    -59.03803698	   -130.17148615	     52.13143355	    -24.99999983	      7.73480563	      0.12917304	     -8.02946548	    -21.96758013	    -34.87706277	     -3.22793844	     53.05460799	    -37.01225598	      1.16222508	     60.34776554	     28.39877085	     -7.50914231	    -24.99999983
      5.97000000	      0.52709004	     -1.07939408	     13.47309563	     -0.12000675	      1.02741340	      0.01496010	      7.82222923	     -7.38058450	     14.76378579	     -1.52822542	      2.41438706	     -3.76978823	    -53.21165221	    -71.90076152	     87.28974034	    -59.48790005	   -130.27516204	     52.29668242	    -24.99999983	      7.76142761	      0.18243931	     -8.07171962	    -22.02248536	    -34.88150192	     -3.21691652	     53.32232407	    -36.93583230	      0.97032452	     60.96621672	     28.35920132	     -7.66869126	    -24.99999983
      5.98000000	      0.61111197	     -1.01730752	     13.72230122	     -0.11968509	      1.02677286	      0.01505413	      7.76340655	     -7.17168141	     14.32675580	     -1.07901586	      1.78526421	     -3.63705458	    -53.22516251	    -72.58395462	     87.46420736	    -60.24660932	   -130.36206361	     52.70607901	    -24.99999983	      7.66290321	      0.14710537	     -7.95325513	    -22.14587994	    -35.20084212	     -3.31895313	     53.84277579	    -36.97336505	      0.67443592	     61.49176768	     28.23874340	     -8.02192618	    -24.99999983
      5.99000000	      0.52230507	     -0.93254761	     13.53153675	     -0.11953055	      1.02680192	      0.01518878	      7.78039219	     -7.22563611	     14.38525923	     -1.14823227	      1.83408972	     -3.64458863	    -53.19875533	    -72.58462134	     87.60155501	    -60.62664660	   -130.52856784	     52.75445583	    -24.99999983	      7.69771559	      0.12116654	     -8.00763154	    -22.08111647	    -35.12372084	     -3.27750303	     54.14114733	    -36.79834652	      0.62064690	     61.82674791	     28.17122611	     -8.13139099	    -24.99999983
      6.00000000	      0.48119965	     -0.82093943	     13.40049654	     -0.11917444	      1.02654727	      0.01537464	      7.74940928	     -7.17631117	     14.33518987	     -1.10981829	      1.84889452	     -3.64375224	    -53.13110823	    -72.55294311	     87.68309706	    -61.03036691	   -130.87383189	     52.74978447	    -24.99999983	      7.70177400	      0.11992581	     -8.00849552	    -22.06092492	    -35.08602076	     -3.26994482	     54.48843428	    -36.67586661	      0.60535860	     62.38341291	     28.04943190	     -8.28349485	    -24.99999983
      6.01000000	      0.42654860	     -0.70842001	     13.32031882	     -0.11893746	      1.02640573	      0.01556965	      7.73149463	     -7.13118146	     14.29630669	     -1.06564612	      1.84142368	     -3.64457391	    -53.13770570	    -72.54625664	     87.84806123	    -61.47241982	   -131.31644559	     52.71727229	    -24.99999983	      7.71197397	      0.08835564	     -8.02655474	    -22.01729608	    -35.06287851	     -3.25602867	     54.85380074	    -36.55295827	      0.57586759	     62.93862352	     27.90238538	     -8.42680008	    -24.99999983
      6.02000000	      0.41181357	     -0.58896792	     13.26184793	     -0.11860342	      1.02626817	      0.01580037	      7.70070813	     -7.06877551	     14.22846496	     -1.00239722	      1.82433466	     -3.64008428	    -53.11288034	    -72.53490499	     87.98536337	    -61.90353753	   -131.86900242	     52.64403176	    -24.99999983	      7.70319436	      0.03077800	     -8.01779525	    -21.95756859	    -35.05663251	     -3.24956640	     55.21863007	    -36.40890357	      0.59329027	     63.51301069	     27.71724372	     -8.56413160	    -24.99999983
      6.03000000	      0.38300027	     -0.46678191	     13.36550964	     -0.11841354	      1.02663983	      0.01594364	      7.72689034	     -7.05702968	     14.25004002	     -0.97307470	      1.77889148	     -3.64629633	    -53.15805434	    -72.56654670	     88.06057312	    -62.01824494	   -131.98391302	     52.63612853	    -24.99999983	      7.70601083	     -0.01242333	     -8.00451194	    -21.84452292	    -34.91372062	     -3.22069907	     55.39892948	    -36.22689834	      0.67488282	     63.71595939	     27.66030409	     -8.60299705	    -24.99999983
